# xmcd CD database file
#
# Track frame offsets:
#	150
#	61947
#	126705
#	155747
#	172187
#	196167
#	209937
#	228292
#
# Disc length: 3279 seconds
#
# Revision: 0
# Processed by: cddbd v1.5.2PL0 Copyright (c) Steve Scherf et al.
# Submitted via: CDex 1.70beta2
#
DISCID=7d0ccd08
DTITLE=Walter Bishop Jr. - Bish Bash
DYEAR=1900
DGENRE=Jazz
TTITLE0=Days Of Wine And Roses
TTITLE1=Wilow Weep For Me
TTITLE2=Summertime
TTITLE3=Minor Move
TTITLE4=Yesterday's Dream
TTITLE5=Party Time
TTITLE6=My Man's Gone Now
TTITLE7=Viva
EXTD=
EXTT0=
EXTT1=
EXTT2=
EXTT3=
EXTT4=
EXTT5=
EXTT6=
EXTT7=
PLAYORDER=
